<?xml version="1.0" encoding="utf-8"?>
<!-- Generator: Adobe Illustrator 27.9.0, SVG Export Plug-In . SVG Version: 6.00 Build 0)  -->
<svg version="1.1" id="Calque_1" xmlns="http://www.w3.org/2000/svg" xmlns:xlink="http://www.w3.org/1999/xlink" x="0px" y="0px"
	 viewBox="0 0 961.9 1011.3" style="enable-background:new 0 0 961.9 1011.3;" xml:space="preserve">
<style type="text/css">
	.st0{fill:#FFFFFF;}
</style>
<g id="Calque_3">
	<polygon class="st0" points="482.8,51.9 456.2,61.9 458.1,31.3 482.9,21.9 507.6,31.4 509.4,62.1 	"/>
	<polygon class="st0" points="533.8,465 482.4,448.1 431.3,465 455.2,74 483.3,63.4 510.5,73.8 	"/>
	<polygon class="st0" points="508.5,551.5 459.5,551.5 430.9,474.9 482.4,457.5 534.5,474.9 	"/>
	<polygon class="st0" points="460.5,558.8 506.9,558.8 482.3,593.4 	"/>
</g>
<g id="Calque_4">
	<path class="st0" d="M380.5,266.3l-267.2,46.9l-50.6-1.9l59.1,32.8l23.5,76.9l24.3,11.5l-12.2-45.6l27.2,52.7l11.1,5.3l-7.6-30.9
		l23.3,38.2L315,501.6c0,0,45.9-75,99.4-116.3C434.9,336.7,380.5,266.3,380.5,266.3L380.5,266.3z M327.7,371.4
		c-21.2,0-38.4-17.2-38.4-38.4s17.2-38.4,38.4-38.4c21.2,0,38.4,17.2,38.4,38.4S349,371.4,327.7,371.4z"/>
	<path class="st0" d="M256.2,6.7l90.9,113L180.3,231.9c0,0-39-171.5,53-229.3C240.8-2.1,250.7-0.2,256.2,6.7z"/>
	<path class="st0" d="M707.6,6.9l-90.9,113l166.8,112.2c0,0,39-171.5-53-229.3C723-1.9,713.1,0,707.6,6.9L707.6,6.9z"/>
	<path class="st0" d="M549.5,385.6c53.5,41.3,99.4,116.3,99.4,116.3l103.6-49.4l23.3-38.2l-7.6,30.9l11.1-5.3l27.2-52.7l-12.2,45.6
		l24.3-11.5l23.5-76.9l59.1-32.8l-50.6,1.9l-267.4-47C583.2,266.5,528.9,336.9,549.5,385.6L549.5,385.6z M597.6,333.1
		c0-21.2,17.2-38.4,38.4-38.4s38.4,17.2,38.4,38.4s-17.1,38.4-38.3,38.4S597.6,354.3,597.6,333.1z"/>
</g>
<g>
	<path class="st0" d="M55.4,768.7v-95c0-11.7,3.6-21.4,10.6-28.9c7.2-7.4,16.4-11.2,27.8-11.2c13.6,0,23.9,6.3,31.1,18.6
		c4.4-6.6,9.2-11.4,14.2-14.4c5.1-2.8,11.3-4.3,18.8-4.3c11.8,0,20.9,3.7,27.3,11.2c6.3,7.4,9.4,18.2,9.4,32.2v91.5h-39.2v-85.6
		c0-4.3-0.4-7-1.1-8.4c-0.7-1.3-2-2.1-4.1-2.1c-3.9,0-5.9,3.3-5.9,9.8v86.3h-39.2v-85.6c0-4.1-0.4-6.9-1.1-8.4s-2.1-2.1-4.1-2.1
		c-3.9,0-5.9,3.5-5.9,10.5v85.6H55.4V768.7z"/>
	<path class="st0" d="M266.4,702.6v34.7h-11.3v31.4h-39.2v-83.8c0-16.2,4.4-28.9,13.3-37.8c8.8-9,21.3-13.4,37.2-13.4
		c15.4,0,26.9,4.1,34.3,12.2c7.4,8.1,11,20.7,11,37.6v85.1h-39.2v-82.5c0-5.2-0.7-8.8-1.9-10.8c-1.2-2-3.5-2.9-6.5-2.9
		c-6.1,0-9.2,4.5-9.2,13.7v16.4L266.4,702.6L266.4,702.6z"/>
	<path class="st0" d="M389.8,674.8v93.9h-39.2v-93.9h-30.1V637h99.2v37.8H389.8z"/>
	<path class="st0" d="M498.6,674.8v93.9h-39.2v-93.9h-30.1V637h99.1v37.8H498.6z"/>
	<path class="st0" d="M588.9,684.1v34.7H578v49.9h-39.2V637H578v47.1H588.9z M634.8,637v131.7h-39.2V637H634.8z"/>
	<path class="st0" d="M700.2,637v131.7H661V637H700.2z"/>
	<path class="st0" d="M774.3,702.6v34.7H763v31.4h-39.2v-83.8c0-16.2,4.4-28.9,13.3-37.8c8.8-9,21.3-13.4,37.2-13.4
		c15.4,0,26.9,4.1,34.3,12.2c7.4,8.1,11,20.7,11,37.6v85.1h-39.2v-82.5c0-5.2-0.7-8.8-1.9-10.8s-3.5-2.9-6.5-2.9
		c-6.1,0-9.2,4.5-9.2,13.7v16.4L774.3,702.6L774.3,702.6z"/>
	<path class="st0" d="M905.4,636.4v37.5c-2.8-0.9-5.1-1.5-6.5-1.5c-2.9,0-5.5,1.1-7.6,3.3c-2.1,2.1-3.2,4.8-3.2,7.8
		c0,2.7,1.2,6,3.5,10l2.9,5.2c5.5,9.4,8.1,18.5,8.1,27.3c0,12.8-4.5,23.7-13.7,32.5c-9,8.9-20.2,13.3-33.4,13.3
		c-6.3,0-12.5-1.5-18.8-4.4v-38.2c3.7,2.4,7,3.6,10,3.6c3.5,0,6.3-0.9,8.5-2.9c2.3-2,3.5-4.4,3.5-7.4c0-2-1.9-6.1-5.5-12.6
		c-5.9-10.2-8.8-20.6-8.8-30.9c0-12.4,4.4-23.1,13.3-32.1c8.8-9,19.4-13.4,31.7-13.4C894.8,633.7,900.1,634.6,905.4,636.4z"/>
	<path class="st0" d="M217.7,837.3v-11.7c2.7,0,4-1.1,4-3.1c0-1.9-1.1-2.8-3.1-2.8c-2.1,0-3.1,1.3-3.1,3.9v29.1h-13.3v-27.8
		c0-2.9,0.3-5.2,0.8-7c0.5-1.9,1.6-3.6,2.9-5.2c1.6-1.7,3.6-3.2,5.9-4.1c2.4-1.1,4.8-1.6,7.3-1.6c4.5,0,8.4,1.5,11.4,4.5
		c3.1,3.1,4.7,6.8,4.7,11.3c0,4.4-1.3,8-4.1,10.6c-2.5,2.5-6.4,3.7-11.4,3.7L217.7,837.3z"/>
	<path class="st0" d="M257.7,819.8v13c-0.8-0.5-1.6-0.7-2.3-0.7c-2.3,0-3.3,1.7-3.3,5.1v15.4h-12.2v-17.8c0-4.7,1.3-8.5,3.9-11.3
		s6-4.3,10.2-4.3C254.9,819.5,256.3,819.6,257.7,819.8z"/>
	<path class="st0" d="M276.8,819.5c4.7,0,8.6,1.6,11.8,4.9c3.3,3.3,4.9,7.3,4.9,12s-1.7,8.8-5.1,12c-3.3,3.3-7.3,4.9-12.1,4.9
		c-4.8,0-8.8-1.6-12.1-4.9c-3.3-3.3-5.1-7.3-5.1-12c0-4.8,1.7-8.8,5.1-12.1C267.7,821.1,271.8,819.5,276.8,819.5z M276.5,831.5
		c-1.3,0-2.4,0.5-3.3,1.5c-0.9,0.9-1.3,2.1-1.3,3.5s0.4,2.5,1.3,3.5c0.9,0.9,2,1.5,3.3,1.5s2.4-0.5,3.3-1.5c0.9-0.9,1.3-2.1,1.3-3.5
		s-0.4-2.5-1.3-3.5S277.8,831.5,276.5,831.5z"/>
	<path class="st0" d="M330.8,838.4h-18.5c-0.3-0.9-0.4-1.9-0.4-2.5c0-1.1,0.1-2.1,0.5-3.2h6.3c-0.4-2.4-1.9-3.6-4.1-3.6
		c-1.5,0-2.8,0.7-3.7,2c-0.9,1.3-1.5,2.9-1.5,4.9c0,2.1,0.4,3.9,1.3,5.2s2.1,2,3.6,2c1.2,0,2.4-0.7,3.6-1.9l6.9,8.4
		c-3.2,2.5-6.9,3.9-10.8,3.9c-4.8,0-8.9-1.6-12.2-4.9c-3.3-3.2-4.9-7.3-4.9-12.1s1.6-8.8,4.9-12.1s7.4-4.9,12.2-4.9
		c4.8,0,8.6,1.6,12,4.8c3.2,3.2,4.8,7.2,4.8,11.8C330.9,836.6,330.9,837.3,330.8,838.4z"/>
	<path class="st0" d="M364.9,852.7h-12.2v-18.4c0-1.9-0.8-2.8-2.3-2.8s-2.3,0.9-2.3,2.8v18.4h-12.2v-18.2c0-4.3,1.5-7.8,4.3-10.8
		c2.8-2.9,6.3-4.4,10.4-4.4c4.7,0,8.4,1.7,11.2,5.1c2.3,2.7,3.3,6.3,3.3,11v17.3L364.9,852.7L364.9,852.7z"/>
	<path class="st0" d="M392.1,837.7l12.1-0.4c-0.4,4.7-2.1,8.5-5.3,11.6c-3.2,3.1-7,4.5-11.6,4.5c-4.8,0-8.8-1.7-12.1-5.1
		c-3.3-3.3-4.9-7.4-4.9-12.2c0-4.7,1.7-8.5,5.1-11.8c3.3-3.3,7.3-4.9,12-4.9c4.1,0,7.7,1.3,10.8,3.9c3.1,2.5,5.1,5.9,5.9,9.8
		l-12.4,0.4c-1.1-1.3-2.4-2.1-4-2.1c-1.3,0-2.5,0.4-3.5,1.3s-1.3,2.1-1.3,3.5c0,1.5,0.5,2.7,1.5,3.6c0.9,0.9,2.1,1.5,3.6,1.5
		C389.7,841.3,391.1,840.1,392.1,837.7z"/>
	<path class="st0" d="M427.6,840.5v12.6c-1.1,0.1-1.9,0.3-2.8,0.3c-4.9,0-9-1.6-12.2-4.8c-3.3-3.2-4.9-7.3-4.9-12.1s1.6-8.8,4.9-12
		c3.3-3.3,7.3-4.9,12.1-4.9c5.3,0,9.4,1.6,12.5,4.7s4.5,7.3,4.5,12.6v16h-12.2v-15.2c0-1.7-0.4-3.1-1.2-4.1c-0.8-1.1-2-1.6-3.3-1.6
		s-2.4,0.5-3.3,1.5c-0.9,0.9-1.5,2-1.5,3.3s0.4,2.5,1.3,3.3c0.8,0.9,1.9,1.3,3.2,1.3C425.7,841.3,426.6,841,427.6,840.5z"/>
	<path class="st0" d="M485.4,827.7H498c2.7,3.3,4.1,6.9,4.1,10.6c0,4.4-1.6,8-4.8,11c-3.2,2.9-7.2,4.4-11.8,4.4
		c-6.1,0-11.2-2.3-15.4-6.9s-6.4-10.2-6.4-16.8s2.1-12.1,6.5-16.5c4.3-4.4,9.7-6.6,16.1-6.6c2.3,0,4.7,0.4,7.3,1.3v13.3
		c-2.1-0.9-4-1.5-5.7-1.5c-3.1,0-5.7,0.9-7.6,2.9c-2,2-2.9,4.5-2.9,7.6c0,3.2,0.9,5.7,2.8,7.6s4.3,2.8,7.4,2.8c2,0,2.9-0.5,2.9-1.7
		c0-0.9-0.7-1.3-2-1.3h-3.2v-10.2H485.4z"/>
	<path class="st0" d="M522,819.5c4.7,0,8.6,1.6,11.8,4.9c3.3,3.3,4.9,7.3,4.9,12s-1.7,8.8-5.1,12c-3.3,3.3-7.4,4.9-12.1,4.9
		c-4.8,0-8.8-1.6-12.1-4.9c-3.3-3.3-5.1-7.3-5.1-12c0-4.8,1.7-8.8,5.1-12.1C513,821.1,517.1,819.5,522,819.5z M521.7,831.5
		c-1.3,0-2.4,0.5-3.3,1.5c-0.9,0.9-1.3,2.1-1.3,3.5s0.4,2.5,1.3,3.5c0.9,0.9,2,1.5,3.3,1.5s2.4-0.5,3.3-1.5c0.9-0.9,1.3-2.1,1.3-3.5
		s-0.4-2.5-1.3-3.5C524.1,832,523.1,831.5,521.7,831.5z"/>
	<path class="st0" d="M573.1,852.7h-12.2v-18.4c0-1.9-0.8-2.8-2.3-2.8s-2.3,0.9-2.3,2.8v18.4h-12.4v-18.2c0-4.3,1.5-7.8,4.3-10.8
		c2.8-2.9,6.3-4.4,10.4-4.4c4.7,0,8.4,1.7,11.2,5.1c2.3,2.7,3.3,6.3,3.3,11V852.7z"/>
	<path class="st0" d="M600.2,837.7l12.1-0.4c-0.4,4.7-2.1,8.5-5.3,11.6s-7,4.5-11.6,4.5c-4.8,0-8.8-1.7-12.1-5.1s-4.9-7.4-4.9-12.2
		c0-4.7,1.7-8.5,5.1-11.8s7.3-4.9,12-4.9c4.1,0,7.7,1.3,10.8,3.9c3.1,2.5,5.1,5.9,5.9,9.8l-12.4,0.4c-1.1-1.3-2.4-2.1-4-2.1
		c-1.3,0-2.5,0.4-3.5,1.3s-1.3,2.1-1.3,3.5c0,1.5,0.5,2.7,1.5,3.6s2.1,1.5,3.6,1.5C597.8,841.3,599.3,840.1,600.2,837.7z"/>
	<path class="st0" d="M635.7,840.5v12.6c-1.1,0.1-1.9,0.3-2.8,0.3c-4.9,0-9-1.6-12.2-4.8c-3.3-3.2-4.9-7.3-4.9-12.1s1.6-8.8,4.9-12
		c3.3-3.3,7.3-4.9,12.1-4.9c5.3,0,9.4,1.6,12.5,4.7s4.5,7.3,4.5,12.6v16h-12.2v-15.2c0-1.7-0.4-3.1-1.2-4.1c-0.8-1.1-2-1.6-3.3-1.6
		s-2.4,0.5-3.3,1.5c-0.9,0.9-1.5,2-1.5,3.3s0.4,2.5,1.3,3.3c0.8,0.9,1.9,1.3,3.2,1.3C633.8,841.3,634.8,841,635.7,840.5z"/>
	<path class="st0" d="M669.2,808.1v44.6H657v-44.6H669.2z"/>
	<path class="st0" d="M700.9,820.2L685.6,854l-15-33.9h11.7l3.5,8.8l3.9-8.8H701v0.1H700.9z"/>
	<path class="st0" d="M734.1,838.4h-18.5c-0.3-0.9-0.4-1.9-0.4-2.5c0-1.1,0.1-2.1,0.5-3.2h6.3c-0.4-2.4-1.9-3.6-4.1-3.6
		c-1.5,0-2.8,0.7-3.7,2s-1.5,2.9-1.5,4.9c0,2.1,0.4,3.9,1.3,5.2c0.9,1.3,2.1,2,3.6,2c1.2,0,2.4-0.7,3.6-1.9l6.9,8.4
		c-3.2,2.5-6.9,3.9-10.8,3.9c-4.8,0-8.9-1.6-12.2-4.9c-3.3-3.2-4.9-7.3-4.9-12.1s1.6-8.8,4.9-12.1c3.3-3.3,7.4-4.9,12.2-4.9
		s8.6,1.6,12,4.8c3.2,3.2,4.8,7.2,4.8,11.8C734.3,836.6,734.3,837.3,734.1,838.4z"/>
	<path class="st0" d="M759.7,820.6v12.9c-1.7,0-2.9,0.3-3.6,0.9s-1.1,1.9-1.2,3.9c-0.5,6.3-3.1,10.8-7.3,13.3c-2.3,1.3-5.6,2-9.7,2
		h-1.7v-12.9h0.5c2,0,3.3-0.4,4.3-1.2c0.8-0.8,1.3-2.3,1.5-4.3c0.1-3.3,0.5-5.7,0.9-7s1.3-2.7,2.8-4c2.4-2.4,5.7-3.5,10-3.5h3.6
		L759.7,820.6L759.7,820.6z"/>
	<path class="st0" d="M151.5,923.9v84.6h-35.4V890h46c20.2,0,36.1,4.6,47.4,13.8c13.4,11,20.5,25.8,20.5,44.6
		c0,18-5.7,32.5-17.3,43.9c-11.7,11.3-26.5,17-44.9,17c-2.1,0-5.7,0-10.6-0.4v-35h5.7c20.5,0,30.8-8.5,30.8-25.8
		c0-16.3-10.3-24.4-30.4-24.4h-11.7L151.5,923.9L151.5,923.9z"/>
	<path class="st0" d="M292.3,975.9v33.6c-2.8,0.4-5,0.7-7.4,0.7c-13.1,0-24.1-4.2-32.5-12.7c-8.8-8.5-13.1-19.5-13.1-32.2
		s4.2-23.4,13.1-31.8c8.8-8.8,19.5-13.1,32.2-13.1c14.2,0,25.1,4.2,33.3,12.4c8.1,8.1,12,19.5,12,33.6v42.5h-32.5v-40.3
		c0-4.6-1.1-8.1-3.2-11c-2.1-2.8-5.3-4.2-8.8-4.2s-6.4,1.4-8.8,3.9c-2.5,2.5-3.9,5.3-3.9,8.8s1.1,6.7,3.5,8.8
		c2.1,2.5,5.3,3.5,8.5,3.5C287.3,978.1,289.8,977.4,292.3,975.9z"/>
	<path class="st0" d="M475.9,950.5l36.8,1.1c-2.5,19.1-9.2,34-19.8,44.2c-11,10.3-24.8,15.6-42.5,15.6s-32.5-6-44.2-17.7
		c-12-11.7-17.7-26.5-17.7-44.2s6-32.5,18-44.6c12-12,27.2-18,44.9-18c17.3,0,32.2,6,43.9,17.7c8.1,8.1,13.8,19.5,17.3,34.3
		l-37.9,2.5c-4.2-13.1-12.4-19.5-24.1-19.5c-7.4,0-13.8,2.5-18.8,7.8s-7.4,12-7.4,19.8s2.5,14.2,7.1,19.1c5,5,11,7.8,18.4,7.8
		s13.4-2.1,17.7-6.7C472.7,965.3,475.2,959,475.9,950.5z"/>
	<path class="st0" d="M568.2,920c12.4,0,23,4.2,31.5,13.1c8.8,8.8,13.1,19.5,13.1,31.8c0,12.4-4.6,23.4-13.4,31.8
		c-8.8,8.8-19.8,13.1-32.2,13.1c-12.7,0-23.4-4.2-32.2-13.1c-8.8-8.8-13.4-19.5-13.4-31.8c0-12.7,4.6-23.4,13.4-32.2
		C544.2,924.3,555.2,920,568.2,920z M567.5,951.9c-3.5,0-6.4,1.4-8.8,3.9c-2.5,2.5-3.5,5.7-3.5,9.2s1.1,6.7,3.5,9.2
		c2.5,2.5,5.3,3.9,8.8,3.9s6.4-1.4,8.8-3.9c2.5-2.5,3.5-5.7,3.5-9.2s-1.1-6.7-3.5-9.2C573.9,953.3,571.1,951.9,567.5,951.9z"/>
	<path class="st0" d="M681.1,922.9v34.3c-4.6,0-7.8,0.7-9.6,2.5s-2.8,5-3.2,10.3c-1.4,16.6-8.1,28.7-19.5,35.4
		c-6,3.5-14.9,5.3-25.8,5.3h-4.6v-34.3h1.4c5.3,0,8.8-1.1,11.3-3.2c2.1-2.1,3.5-6,3.9-11.3c0.4-8.8,1.4-15.2,2.5-18.8
		c1.1-3.5,3.5-7.1,7.4-10.6c6.4-6.4,15.2-9.2,26.5-9.2h9.6L681.1,922.9L681.1,922.9z"/>
	<path class="st0" d="M720.7,889.6v33.3h14.5v34.3h-14.5c0,7.1,1.1,11.7,3.2,14.2c2.1,2.5,6,3.9,12,3.9v34.3c-1.8,0-2.8,0-3.9,0
		c-7.4,0-14.2-1.8-20.9-5c-6.4-3.5-11.7-8.1-15.6-13.8c-5-7.4-7.4-17.3-7.4-29.7V890h32.5v-0.4H720.7z"/>
	<path class="st0" d="M799.3,975.9v33.6c-2.8,0.4-5,0.7-7.4,0.7c-13.1,0-24.1-4.2-32.5-12.7c-8.8-8.5-13.1-19.5-13.1-32.2
		s4.2-23.4,13.1-31.8c8.8-8.8,19.5-13.1,32.2-13.1c14.2,0,25.1,4.2,33.3,12.4c8.1,8.1,12,19.5,12,33.6v42.5h-32.2v-40.3
		c0-4.6-1.1-8.1-3.2-11c-2.1-2.8-5.3-4.2-8.8-4.2s-6.4,1.4-8.8,3.9c-2.5,2.5-3.9,5.3-3.9,8.8s1.1,6.7,3.5,8.8
		c2.1,2.5,5.3,3.5,8.5,3.5C794.3,978.1,797.2,977.4,799.3,975.9z"/>
</g>
</svg>
